Coordinates
version=1
nRows=23
nColumns=33
inDegrees=yes

Units are S.I. units (second, meters, Newtons, ...)
Angles are in degrees.

endheader
time	ground_thorax_rot_x	ground_thorax_rot_y	ground_thorax_rot_z	ground_thorax_tx	ground_thorax_ty	ground_thorax_tz	clav_prot_r	clav_elev_r	scapula_abduction_r	scapula_elevation_r	scapula_upward_rot_r	scapula_winging_r	shoulder_elv_r	plane_of_elev_r	axial_rot_r	elbow_flexion_r	pro_sup_r	wrist_flex_r	wrist_dev_r	clav_prot_l	clav_elev_l	scapula_abduction_l	scapula_elevation_l	scapula_upward_rot_l	scapula_winging_l	shoulder_elv_l	plane_of_elev_l	axial_rot_l	elbow_flexion_l	pro_sup_l	wrist_flex_l	wrist_dev_l	
6.9400	-39.670327	-8.433466	9.573847	-89.555846	782.709766	10.083044	7.628130	-45.000000	44.999999	-45.000000	-18.631632	-2609.868419	-2093.327249	31.476313	44.483916	2169.279695	24.503339	16.931531	14.647357	15.986373	41.648697	-44.999996	-41.002393	-23.266040	79.665546	-2814.916942	29.229401	11.350779	360.798565	41.643460	12.050149	-19.321272	
6.9500	-39.760613	-8.434165	9.435589	-89.604422	782.921348	9.955995	7.579594	-45.000000	44.999997	-45.000000	-18.591894	-2609.837363	-2093.336210	31.486959	44.515248	2169.320930	24.663977	16.954817	14.552822	16.093881	41.717106	-44.999993	-41.072874	-23.269331	79.620595	-2814.881762	29.291470	11.514390	360.844108	41.741440	12.042260	-19.331701	
6.9600	-39.832190	-8.453793	9.316408	-89.749995	783.148530	9.830406	7.508655	-45.000000	44.999995	-45.000000	-18.558509	-2609.804409	-2093.303387	31.473871	44.540719	2169.381241	24.812547	16.970929	14.440938	16.233701	41.772937	-44.999987	-41.124209	-23.263937	79.607989	-2814.861783	29.338877	11.661043	360.893905	41.830922	12.058464	-19.346486	
6.9700	-39.901344	-8.450568	9.175260	-90.104273	783.415177	9.707356	7.451569	-45.000000	44.999992	-45.000000	-18.477565	-2609.818212	-2093.261564	31.474917	44.550579	2169.443805	24.931859	17.007441	14.340693	16.277969	41.825226	-44.999976	-41.173226	-23.220764	79.628460	-2814.835098	29.379317	11.769130	360.957091	41.898373	12.038510	-19.392779	
6.9800	-39.969710	-8.446546	9.031362	-90.682186	783.719777	9.587662	7.403716	-45.000000	44.999985	-45.000000	-18.388491	-2609.870738	-2093.210512	31.486934	44.543499	2169.514339	25.019084	17.053881	14.241382	16.273084	41.867225	-44.999957	-41.231021	-23.167945	79.678924	-2814.806670	29.405972	11.825785	361.038522	41.929658	12.002206	-19.462209	
6.9900	-40.034652	-8.446142	8.896789	-91.513298	784.066399	9.471984	7.360558	-45.000000	44.999974	-45.000000	-18.304893	-2609.956555	-2093.134822	31.496015	44.509410	2169.597977	25.064805	17.108753	14.138527	16.238284	41.915579	-44.999924	-41.298396	-23.127181	79.761316	-2814.776816	29.423799	11.820060	361.143590	41.904044	11.954574	-19.554626	
7.0000	-40.113301	-8.464876	8.784931	-92.600716	784.455699	9.360613	7.340991	-45.000000	44.999953	-45.000000	-18.277040	-2610.076387	-2093.058249	31.515276	44.434450	2169.690322	25.061807	17.166445	14.033670	16.203803	41.999707	-44.999863	-41.419577	-23.165346	79.845065	-2814.739333	29.431555	11.745475	361.292779	41.791306	11.893984	-19.658789	
7.0100	-40.200338	-8.511249	8.712827	-93.936073	784.890321	9.253195	7.335752	-45.000000	44.999915	-45.000000	-18.321168	-2610.214959	-2092.960687	31.523713	44.301226	2169.795209	25.002102	17.222937	13.924255	16.200495	42.129800	-44.999755	-41.588040	-23.299015	79.931824	-2814.696341	29.432419	11.613437	361.487445	41.566530	11.831592	-19.767021	
7.0200	-40.307910	-8.583958	8.674676	-95.511846	785.378173	9.149029	7.359070	-45.000000	44.999848	-45.000000	-18.450066	-2610.380494	-2092.866754	31.541285	44.096204	2169.901337	24.880676	17.277503	13.819329	16.226646	42.303449	-44.999562	-41.826205	-23.542748	80.005856	-2814.641922	29.424963	11.434965	361.729220	41.213585	11.760084	-19.871298	
7.0300	-40.420530	-8.669548	8.667351	-97.322315	785.931583	9.047199	7.393790	-45.000000	44.999728	-45.000000	-18.638703	-2610.570571	-2092.749531	31.556853	43.812858	2170.007854	24.694825	17.330115	13.718528	16.286674	42.504765	-44.999215	-42.097197	-23.862142	80.085785	-2814.576274	29.417937	11.229893	362.001554	40.735575	11.687109	-19.971336	
7.0400	-40.540806	-8.780968	8.699688	-99.363568	786.565316	8.947069	7.456192	-45.000000	44.999513	-45.000000	-18.908156	-2610.797499	-2092.626817	31.590864	43.443818	2170.104664	24.440816	17.377777	13.624705	16.411491	42.710986	-44.998593	-42.412903	-24.291413	80.161888	-2814.491891	29.416513	11.016040	362.298691	40.131918	11.606500	-20.059102	
7.0500	-40.656524	-8.904186	8.758373	-101.633366	787.295068	8.848303	7.526665	-45.000000	44.999128	-45.000000	-19.219357	-2611.054801	-2092.479650	31.632867	43.007500	2170.194680	24.123508	17.422989	13.538386	16.572281	42.896412	-44.997481	-42.735328	-24.770347	80.255520	-2814.389547	29.421437	10.810533	362.597401	39.431518	11.525039	-20.138479	
7.0600	-40.770383	-9.049507	8.849132	-104.130482	788.135464	8.751008	7.612612	-45.000000	44.998438	-45.000000	-19.584587	-2611.344559	-2092.320516	31.689833	42.521778	2170.272903	23.745743	17.463950	13.459754	16.779313	43.042337	-44.995483	-43.073873	-25.315812	80.360581	-2814.268424	29.430813	10.625037	362.897105	38.655709	11.438738	-20.208288	
7.0700	-40.878828	-9.198651	8.955330	-106.853833	789.098854	8.655501	7.697357	-45.000000	44.997205	-45.000000	-19.971076	-2611.657223	-2092.137558	31.748953	42.023029	2170.346311	23.317967	17.503818	13.388287	16.983965	43.162355	-44.991922	-43.410243	-25.883187	80.482871	-2814.128690	29.440646	10.465377	363.192955	37.844491	11.352697	-20.276510	
7.0800	-40.985929	-9.350640	9.071660	-109.801335	790.194106	8.562118	7.781755	-45.000000	44.994984	-45.000000	-20.366207	-2611.988235	-2091.938317	31.804555	41.541961	2170.416372	22.852281	17.541299	13.316699	17.160242	43.277888	-44.985492	-43.751236	-26.457671	80.625616	-2813.981328	29.443869	10.314928	363.496126	37.028001	11.268127	-20.346156	
7.0900	-41.089967	-9.483321	9.172754	-112.968893	791.426082	8.470940	7.848394	-45.000000	44.991039	-45.000000	-20.724125	-2612.329855	-2091.717880	31.846444	41.117726	2170.492297	22.367988	17.580584	13.241661	17.250174	43.399554	-44.974119	-44.074580	-26.965942	80.802396	-2813.831646	29.427885	10.151338	363.798805	36.246910	11.189642	-20.423878	
7.1000	-41.175658	-9.624447	9.298127	-116.350297	792.795368	8.381725	7.918832	-45.000000	44.983882	-45.000000	-21.099095	-2612.695077	-2091.470812	31.888542	40.745537	2170.566770	21.862949	17.619251	13.158724	17.321185	43.483375	-44.953341	-44.363903	-27.479172	81.008783	-2813.664095	29.406430	9.998904	364.102876	35.483482	11.112487	-20.504952	
7.1100	-41.237754	-9.768674	9.443544	-119.936223	794.298462	8.293948	7.993230	-45.000000	44.971310	-45.000000	-21.485389	-2613.083273	-2091.194754	31.931650	40.433610	2170.644709	21.344636	17.659235	13.064742	17.376691	43.527888	-44.917255	-44.601970	-27.987162	81.245752	-2813.469360	29.382750	9.848908	364.395722	34.740021	11.039819	-20.587758	
7.1200	-41.267892	-9.927192	9.622411	-123.714578	795.928280	8.206904	8.082013	-45.000000	44.948102	-45.000000	-21.907598	-2613.498865	-2090.887086	31.988513	40.181357	2170.721784	20.817653	17.699802	12.952056	17.431348	43.514074	-44.849451	-44.777647	-28.501270	81.511173	-2813.242423	29.366078	9.689658	364.671964	33.998194	10.976590	-20.670691	
7.1300	-41.273825	-10.086491	9.812097	-127.670188	797.674688	8.119892	8.162929	-45.000000	44.908448	-45.000000	-22.340051	-2613.926980	-2090.553780	32.051315	40.003885	2170.801060	20.299601	17.745173	12.815294	17.436251	43.466905	-44.738734	-44.893920	-28.957509	81.807825	-2812.995826	29.340181	9.472537	364.929752	33.265898	10.930116	-20.760577	
7.1400	-41.247429	-10.285210	10.069434	-131.785724	799.525141	8.032442	8.265777	-45.000000	44.832063	-45.000000	-22.884532	-2614.363612	-2090.190502	32.130418	39.887317	2170.874953	19.784522	17.793774	12.660195	17.452452	43.337277	-44.577665	-44.960567	-29.466128	82.107067	-2812.708871	29.313263	9.221605	365.184061	32.491077	10.891294	-20.848203	
7.1500	-41.201922	-10.490977	10.356475	-136.041523	801.465280	7.944512	8.365999	-45.000000	44.710177	-45.000000	-23.504491	-2614.788905	-2089.803035	32.215681	39.840837	2170.948311	19.286583	17.849183	12.489219	17.435291	43.162007	-44.374002	-44.992352	-29.969559	82.409975	-2812.400145	29.271407	8.894370	365.436108	31.679992	10.863925	-20.938354	
7.1600	-41.138663	-10.693431	10.667383	-140.416849	803.479375	7.856591	8.462703	-45.000000	44.536332	-45.000000	-24.201562	-2615.195128	-2089.390070	32.306498	39.868127	2171.020869	18.817492	17.912092	12.303855	17.378429	42.949545	-44.136767	-45.000000	-30.472943	82.708938	-2812.078858	29.211526	8.472865	365.689675	30.825296	10.844456	-21.029897	
